<?xml version="1.0" encoding="utf-8"?>
<!-- Generator: Adobe Illustrator 17.0.0, SVG Export Plug-In . SVG Version: 6.00 Build 0)  -->
<!DOCTYPE svg PUBLIC "-//W3C//DTD SVG 1.1//EN" "http://www.w3.org/Graphics/SVG/1.1/DTD/svg11.dtd">
<svg version="1.1" id="Logo_1_" xmlns="http://www.w3.org/2000/svg" xmlns:xlink="http://www.w3.org/1999/xlink" x="0px" y="0px"
	 width="332.552px" height="364.964px" viewBox="0 0 332.552 364.964" enable-background="new 0 0 332.552 364.964"
	 xml:space="preserve">
<path fill="#F47721" d="M168.27,30.953c-75.838,0-137.317,51.77-137.317,115.632c0,41.188,25.577,77.34,64.082,97.824l0.484,32.226
	c0.073,4.856,3.567,8.875,8.087,9.695l-0.56-11.076h8.466v2.976c0,5.5,4.5,10,10,10h24.673c5.5,0,10-4.5,10-10v-2.976h24.171v2.976
	c0,5.5,4.5,10,10,10h24.673c5.5,0,10-4.5,10-10v-2.976h8.466l-0.56,11.076c4.52-0.82,8.014-4.839,8.087-9.695l0.484-32.226
	c38.505-20.484,64.082-56.636,64.082-97.824C305.587,82.724,244.108,30.953,168.27,30.953z M235.444,236.71l-1.696,33.544h-8.719
	v-2.977c0-5.5-4.5-10-10-10h-24.673c-5.5,0-10,4.5-10,10v2.977h-24.171v-2.977c0-5.5-4.5-10-10-10h-24.673c-5.5,0-10,4.5-10,10
	v2.977h-8.719l-1.696-33.544c-17.999-5.766-30.769-13.806-35.247-22.951c12.604,17.615,53.685,30.526,102.42,30.526
	c48.735,0,89.816-12.911,102.42-30.526C266.213,222.904,253.443,230.943,235.444,236.71z"/>
</svg>
